<?xml version="1.0" standalone="no"?>
<!DOCTYPE svg PUBLIC "-//W3C//DTD SVG 20010904//EN"
 "http://www.w3.org/TR/2001/REC-SVG-20010904/DTD/svg10.dtd">
<svg version="1.0" xmlns="http://www.w3.org/2000/svg"
 width="100.000000pt" height="100.000000pt" viewBox="0 0 100.000000 100.000000"
 preserveAspectRatio="xMidYMid meet">
<metadata>
Created by potrace 1.11, written by Peter Selinger 2001-2013
</metadata>
<g transform="translate(0.000000,100.000000) scale(0.100000,-0.100000)"
fill="#000000" stroke="none">
<path d="M345 963 c-11 -2 -54 -15 -96 -29 -59 -19 -85 -34 -118 -68 -43 -44
-43 -45 -37 -99 6 -42 14 -61 36 -82 29 -28 30 -28 52 -9 13 10 17 12 11 4
-32 -36 14 -82 60 -59 20 9 21 9 4 -4 -17 -14 -16 -16 9 -36 15 -12 30 -21 35
-21 4 0 14 -3 23 -6 11 -4 20 4 31 27 8 19 14 27 15 19 0 -8 17 -23 39 -32 32
-14 39 -23 44 -55 12 -72 8 -213 -7 -242 -17 -31 -68 -79 -115 -107 -31 -18
-47 -46 -37 -63 8 -13 184 80 223 117 40 39 71 124 79 215 3 39 10 84 14 100
6 16 5 27 -1 27 -5 0 -9 7 -9 16 0 12 3 14 13 6 16 -13 33 -3 40 23 3 13 5 9
6 -13 1 -30 3 -32 22 -21 17 8 20 17 16 42 l-5 32 11 -27 c6 -16 15 -28 19
-28 5 0 25 15 45 34 34 31 36 35 23 52 -14 16 -13 17 4 7 16 -9 23 -7 37 11
23 29 52 118 47 147 -4 28 -75 84 -126 99 -57 17 -181 24 -162 10 12 -9 10
-10 -10 -4 -14 5 -60 7 -102 6 -49 -2 -78 1 -78 8 0 10 -19 11 -55 3z m275
-143 c22 -44 26 -75 9 -86 -8 -5 -10 2 -6 22 3 18 -2 42 -14 66 -11 21 -17 38
-14 38 2 0 14 -18 25 -40z m-247 -25 c-3 -9 2 -22 13 -30 18 -13 18 -14 2 -15
-10 0 -18 6 -19 13 -1 6 -5 1 -9 -13 -5 -15 -8 -19 -9 -8 -1 19 16 68 23 68 3
0 3 -7 -1 -15z m-6 -97 c-3 -8 -6 -5 -6 6 -1 11 2 17 5 13 3 -3 4 -12 1 -19z"/>
</g>
</svg>
