<svg xmlns="http://www.w3.org/2000/svg" xmlns:xlink="http://www.w3.org/1999/xlink" version="1.1" x="0px" y="0px" viewBox="0 0 100 125" enable-background="new 0 0 100 100" xml:space="preserve"><path fill-rule="evenodd" clip-rule="evenodd" d="M57.589,71.898c-0.073,0.026-0.15,0.052-0.226,0.079  c-0.079,0.02-0.158,0.041-0.24,0.061c-0.162,0.047-0.334,0.079-0.51,0.107c-0.176,0.036-0.355,0.057-0.545,0.072  c-0.185,0.019-0.375,0.032-0.571,0.032c-0.395,0.018-0.782-0.007-1.193-0.023c-0.402-0.034-0.813-0.053-1.222-0.102  c-0.408-0.044-0.815-0.091-1.217-0.149c-0.4-0.05-0.794-0.118-1.173-0.18c-0.382-0.063-0.745-0.144-1.09-0.221  c-0.344-0.08-0.669-0.158-0.966-0.241c-0.297-0.079-0.568-0.166-0.805-0.248c-0.237-0.08-0.441-0.157-0.607-0.225  c-0.112-0.044-0.204-0.085-0.281-0.12c-0.035,0.364-0.073,0.717-0.115,1.06c-0.008-0.008-0.018-0.016-0.025-0.022  c-0.047,0.389-0.102,0.763-0.16,1.116c0.059,0.066,0.139,0.149,0.245,0.244c0.126,0.116,0.291,0.246,0.491,0.376  c0.198,0.132,0.433,0.267,0.694,0.398c0.129,0.071,0.271,0.128,0.415,0.192c0.145,0.067,0.299,0.123,0.458,0.179  c0.313,0.121,0.658,0.211,1.011,0.313c0.177,0.045,0.36,0.089,0.543,0.135c0.186,0.04,0.374,0.072,0.563,0.11  c0.378,0.08,0.771,0.114,1.159,0.172c0.391,0.036,0.782,0.089,1.168,0.114c0.386,0.026,0.763,0.035,1.13,0.021  c0.731-0.026,1.414-0.12,1.966-0.317c0.295-0.103,0.551-0.229,0.761-0.365c0.229-0.469,0.467-0.935,0.663-1.418  c-0.22,0.175-0.499,0.348-0.84,0.479c-0.569,0.225-1.277,0.373-2.037,0.403c-0.378,0.018-0.776,0.015-1.17-0.008  c-0.397-0.026-0.797-0.061-1.199-0.1c-0.398-0.058-0.799-0.101-1.188-0.178c-0.394-0.064-0.774-0.151-1.143-0.234  c-0.368-0.092-0.72-0.192-1.048-0.308c-0.165-0.053-0.323-0.111-0.476-0.172c-0.152-0.059-0.299-0.115-0.436-0.18  c-0.28-0.119-0.526-0.25-0.738-0.373c-0.214-0.124-0.392-0.242-0.533-0.349c-0.089-0.063-0.155-0.121-0.214-0.173  c0.069,0.052,0.152,0.111,0.266,0.181c0.293,0.189,0.741,0.411,1.298,0.625c0.138,0.057,0.285,0.106,0.438,0.157  c0.15,0.053,0.31,0.104,0.475,0.147c0.327,0.101,0.681,0.176,1.042,0.266c0.365,0.076,0.742,0.157,1.131,0.213  c0.385,0.07,0.783,0.106,1.177,0.158c0.396,0.04,0.796,0.084,1.185,0.114c0.395,0.03,0.772,0.039,1.146,0.027  c0.739-0.024,1.432-0.113,1.991-0.311c0.392-0.134,0.715-0.311,0.955-0.492c0.102-0.266,0.188-0.538,0.251-0.82  c0.135-0.261,0.259-0.524,0.38-0.79c-0.08,0.065-0.169,0.132-0.266,0.201C58.142,71.665,57.886,71.802,57.589,71.898z"/><path fill-rule="evenodd" clip-rule="evenodd" d="M54.531,75.388c-0.374,0.02-0.767,0.016-1.156-0.003  c-0.393-0.02-0.787-0.065-1.185-0.097c-0.395-0.065-0.791-0.106-1.176-0.194c-0.191-0.041-0.384-0.077-0.57-0.121  c-0.187-0.049-0.37-0.098-0.551-0.146c-0.359-0.106-0.704-0.22-1.02-0.357c-0.159-0.064-0.313-0.13-0.457-0.205  c-0.145-0.071-0.288-0.137-0.416-0.216c-0.263-0.144-0.491-0.3-0.683-0.451c-0.191-0.15-0.349-0.293-0.469-0.421  c-0.092-0.095-0.16-0.183-0.211-0.252c-0.15,0.895-0.333,1.661-0.558,2.222c-1.203,3.007-6.829,7.945-8.788,9.139  c-1.88,1.146-5.104,3.285-6.058,4.238c-0.899,0.899-1.412,3.033-1.054,4.39c0.255,0.971,0.98,1.076,1.28,1.076  c0.012,0,0.022,0,0.031,0c0.21-0.105,1.11-0.574,2.34-1.407c-0.021-0.005-0.041-0.012-0.065-0.015  c0.003-0.061,0.005-0.121,0.008-0.182c0.191,0.008,0.401-0.096,0.609-0.185c0.473-0.339,0.982-0.722,1.512-1.155  c0.943-0.772,2.679-1.509,4.876-2.441c3.72-1.579,8.35-3.543,11.771-6.777c1.093-1.033,2.034-2.181,2.848-3.41  c-0.003-0.016-0.005-0.032-0.011-0.049c0.547-1.004,1.095-2.009,1.642-3.014c0.021-0.181,0.042-0.362,0.063-0.543  c0.024-0.053,0.051-0.104,0.074-0.156c-0.177,0.12-0.382,0.232-0.617,0.325C55.979,75.203,55.282,75.352,54.531,75.388z"/><path fill-rule="evenodd" clip-rule="evenodd" d="M87.265,15.742c-0.279-0.213-0.568-0.435-0.86-0.683  c-0.438-0.372-0.85-0.744-1.249-1.103c-0.983-0.886-2-1.802-3.532-2.858c-2.146-1.48-2.494-1.541-4.17-1.832  c-1.821-0.317-5.056-1.099-7.008-1.641c-2.188-0.608-5.053-0.989-8.512-1.132c-0.223-0.009-0.433-0.014-0.63-0.014  c-1.884,0-2.591,0.391-2.844,0.623c0.006,0.016,0.012,0.032,0.022,0.052c0.053,0.105,0.167,0.26,0.379,0.396  c0.104,0.067,0.236,0.134,0.376,0.182c0.035,0.013,0.07,0.025,0.105,0.039c0.044,0.012,0.088,0.022,0.134,0.035  c0.09,0.023,0.181,0.048,0.275,0.073c0.198,0.047,0.396,0.119,0.596,0.19c0.196,0.081,0.396,0.158,0.584,0.256  c0.767,0.373,1.441,0.874,1.919,1.274c0.478,0.401,0.759,0.706,0.759,0.706s-0.319-0.266-0.838-0.597  c-0.519-0.332-1.242-0.73-2.004-0.985c-0.189-0.069-0.383-0.116-0.57-0.166c-0.193-0.042-0.378-0.082-0.56-0.101  c-0.096-0.013-0.191-0.026-0.283-0.039c-0.047-0.007-0.093-0.014-0.138-0.02c-0.052-0.012-0.104-0.023-0.153-0.035  c-0.204-0.046-0.38-0.111-0.548-0.193c-0.332-0.162-0.577-0.402-0.709-0.604c-0.005-0.006-0.007-0.011-0.011-0.017  c-0.21,0.044-0.503,0.086-0.858,0.086c-0.425,0-0.854-0.06-1.276-0.177c-0.257-0.071-0.838-0.157-2.143-0.157  c-1.815,0-3.971,0.164-3.992,0.166l-2.406,0.15c-0.114,0.007-2.776,0.166-3.759,0.166l0,0c-0.257,0-0.339-0.011-0.389-0.023  c-0.11-0.027-0.205-0.1-0.313-0.208c-0.007,0.004-0.011,0.006-0.02,0.01c-0.057,0.029-0.139,0.064-0.241,0.11  c-0.206,0.086-0.501,0.2-0.859,0.315c-0.181,0.053-0.383,0.118-0.584,0.167c-0.2,0.05-0.423,0.107-0.62,0.163  c-0.207,0.064-0.422,0.137-0.635,0.229c-0.217,0.085-0.431,0.191-0.646,0.293c-0.856,0.427-1.679,0.942-2.286,1.343  c-0.605,0.401-0.996,0.691-0.996,0.691s0.356-0.33,0.918-0.798c0.562-0.466,1.327-1.071,2.156-1.605  c0.21-0.13,0.418-0.262,0.636-0.378c0.214-0.122,0.435-0.226,0.656-0.321c0.231-0.094,0.429-0.166,0.628-0.237  c0.198-0.07,0.363-0.144,0.528-0.21c0.323-0.14,0.584-0.271,0.76-0.367c0.007-0.003,0.011-0.006,0.018-0.01  c-0.423-0.387-1.043-0.8-2.009-0.91c-0.16-0.018-0.341-0.027-0.533-0.027c-1.507,0-3.727,0.56-5.687,1.055  c-0.676,0.171-1.316,0.332-1.915,0.469c-1.653,0.377-2.455,0.662-3.564,1.055c-0.643,0.228-1.373,0.485-2.419,0.816  c-0.528,0.167-1.04,0.321-1.536,0.471c-2.176,0.656-4.055,1.223-5.981,2.427c-2.042,1.276-3.24,2.589-4.757,4.25  c-0.238,0.262-0.484,0.53-0.74,0.808c-1.942,2.096-3.32,3.996-3.381,4.331c0.001,0.333,0.445,3.229,0.819,4.722  c0.288,1.159,0.152,2.381,0.062,3.19c-0.029,0.263-0.055,0.489-0.055,0.63c0,0.481,0.731,1.663,1.439,2.527  c0.255,0.312,0.639,0.612,1.085,0.959c0.663,0.518,1.488,1.162,2.222,2.125c0.803,1.052,1.301,1.597,1.533,1.833l1.823-1.353  c0.01-0.014,0.02-0.026,0.032-0.042c0.107-0.139,0.264-0.334,0.461-0.56c0.198-0.226,0.437-0.482,0.713-0.742  c0.138-0.13,0.283-0.26,0.443-0.385c0.152-0.125,0.34-0.26,0.496-0.356l0.066-0.042l0.053-0.03c0.036-0.022,0.071-0.036,0.106-0.064  c0.072-0.049,0.144-0.099,0.213-0.158c0.141-0.111,0.274-0.239,0.401-0.362c0.253-0.251,0.477-0.505,0.664-0.727  c0.375-0.444,0.604-0.76,0.604-0.76s-0.161,0.354-0.442,0.87c-0.143,0.258-0.313,0.556-0.521,0.867  c-0.104,0.154-0.215,0.314-0.347,0.471c-0.063,0.079-0.135,0.156-0.209,0.233c-0.035,0.039-0.081,0.075-0.122,0.113l-0.065,0.056  c-0.005,0.008-0.035,0.028-0.052,0.041c-0.165,0.12-0.286,0.222-0.422,0.348c-0.132,0.12-0.259,0.248-0.378,0.376  c-0.236,0.255-0.443,0.511-0.614,0.734c-0.172,0.224-0.307,0.417-0.398,0.552c-0.021,0.033-0.04,0.061-0.057,0.087l-0.655,2.566  c0.709,0.432,1.912,1.141,2.332,1.298c0.506,0.189,2.931,1.038,3.631,1.282l-0.031-0.036c0,0,0.028-0.022,0.082-0.063  c0.053-0.038,0.125-0.086,0.219-0.15c0.188-0.122,0.458-0.286,0.79-0.462c0.168-0.085,0.357-0.184,0.545-0.269  c0.188-0.084,0.396-0.18,0.583-0.27c0.19-0.099,0.389-0.209,0.582-0.337c0.198-0.123,0.391-0.264,0.583-0.404  c0.77-0.572,1.488-1.225,2.014-1.726c0.525-0.503,0.858-0.857,0.858-0.857s-0.293,0.388-0.762,0.947  c-0.471,0.559-1.117,1.29-1.838,1.962c-0.186,0.166-0.365,0.333-0.561,0.485c-0.188,0.157-0.388,0.299-0.587,0.432  c-0.211,0.133-0.394,0.239-0.576,0.343c-0.184,0.104-0.334,0.206-0.484,0.301c-0.293,0.195-0.525,0.37-0.683,0.495  c-0.034,0.027-0.062,0.052-0.089,0.074c0.263,0.281,0.576,0.691,0.627,1.103c0.056,0.435,1.199,1.359,2.117,2.101l0.336,0.272  c1.025,0.833,5.379,1.829,6.61,1.829c0.088,0,0.129-0.006,0.144-0.009c0.313-0.063,1.021-1.539,1.516-3.158  c0.038-0.123,0.156-0.203,0.284-0.194c0.129,0.01,0.232,0.107,0.251,0.235c0.148,1.025,0.332,2.159,0.42,2.543  c0.043,0.003,0.104,0.006,0.182,0.008c-0.419,3.249-1.143,10.121-0.311,13.573c0.996,4.127,4.756,7.819,5.305,7.903  c0.066,0.01,0.124,0.014,0.176,0.014c0.409,0,0.555-0.263,0.574-0.402l0.006-0.048l-0.011-0.047  c-0.018-0.083-1.741-8.427-1.894-11.518c-0.127-2.558,1.15-7.823,1.589-9.543c1.022-0.026,1.772-0.048,1.791-0.049  c0.002,0,0.005,0,0.007,0c0.125,0,0.233,0.083,0.267,0.203c0.002,0.008,0.228,0.837,0.671,2.241  c0.477,1.504,1.589,6.744,1.589,10.065c0,2.311,0,7.206-0.377,11.081c0.08,0.028,0.179,0.061,0.297,0.098  c0.169,0.055,0.378,0.117,0.619,0.178c0.24,0.065,0.513,0.128,0.812,0.196c0.298,0.069,0.623,0.134,0.969,0.197  c0.345,0.064,0.712,0.117,1.088,0.18c0.379,0.056,0.77,0.117,1.169,0.162c0.397,0.05,0.806,0.092,1.211,0.129  c0.406,0.038,0.813,0.076,1.213,0.113c0.396,0.021,0.8,0.052,1.173,0.041c0.188,0.003,0.375-0.006,0.557-0.022  c0.182-0.007,0.359-0.019,0.531-0.045c0.172-0.019,0.341-0.042,0.499-0.08c0.08-0.017,0.157-0.033,0.235-0.048  c0.075-0.022,0.148-0.044,0.222-0.065c0.291-0.082,0.544-0.198,0.762-0.308c0.147-0.086,0.277-0.171,0.386-0.258  c0.06-0.139,0.12-0.277,0.179-0.417c0.257-0.863,0.484-1.734,0.689-2.606c-0.004,0.005-0.008,0.011-0.014,0.016  c-0.116,0.14-0.29,0.28-0.499,0.425c-0.215,0.133-0.47,0.271-0.767,0.368c-0.074,0.025-0.149,0.051-0.228,0.079  c-0.077,0.02-0.158,0.041-0.238,0.061c-0.163,0.047-0.334,0.079-0.509,0.107c-0.176,0.035-0.358,0.057-0.546,0.073  c-0.186,0.019-0.377,0.032-0.572,0.03c-0.394,0.019-0.783-0.006-1.193-0.022c-0.401-0.034-0.813-0.053-1.221-0.101  c-0.407-0.044-0.816-0.092-1.217-0.149c-0.401-0.051-0.794-0.118-1.175-0.18c-0.38-0.064-0.743-0.144-1.088-0.221  c-0.345-0.08-0.67-0.159-0.966-0.241c-0.299-0.079-0.567-0.166-0.805-0.248c-0.237-0.08-0.441-0.157-0.607-0.225  c-0.335-0.135-0.514-0.235-0.514-0.235s0.188,0.08,0.531,0.187c0.169,0.055,0.377,0.117,0.617,0.179  c0.242,0.064,0.516,0.127,0.814,0.196c0.297,0.069,0.623,0.133,0.968,0.197c0.344,0.064,0.71,0.117,1.089,0.18  c0.377,0.056,0.768,0.117,1.166,0.162c0.4,0.05,0.806,0.092,1.213,0.13c0.406,0.038,0.813,0.075,1.214,0.112  c0.395,0.021,0.798,0.052,1.172,0.04c0.189,0.004,0.374-0.005,0.556-0.021c0.184-0.008,0.36-0.019,0.532-0.045  c0.173-0.02,0.34-0.042,0.498-0.08c0.081-0.017,0.158-0.032,0.236-0.048c0.075-0.022,0.149-0.044,0.222-0.065  c0.291-0.082,0.542-0.198,0.762-0.308c0.211-0.124,0.391-0.245,0.515-0.372c0.027-0.025,0.052-0.051,0.077-0.076  c0.143-0.613,0.273-1.226,0.397-1.835c-0.061,0.041-0.121,0.082-0.188,0.123c-0.233,0.134-0.509,0.27-0.826,0.363  c-0.155,0.056-0.322,0.097-0.496,0.137c-0.172,0.047-0.354,0.073-0.541,0.104c-0.188,0.035-0.38,0.053-0.577,0.07  c-0.197,0.021-0.399,0.028-0.607,0.029c-0.418,0.018-0.829-0.008-1.265-0.025c-0.427-0.036-0.861-0.066-1.296-0.109  c-0.216-0.02-0.433-0.041-0.648-0.061c-0.216-0.028-0.43-0.058-0.643-0.085c-0.425-0.061-0.845-0.11-1.246-0.175  c-0.405-0.071-0.791-0.151-1.159-0.221c-0.366-0.077-0.709-0.168-1.028-0.242c-0.318-0.07-0.602-0.174-0.856-0.247  c-0.256-0.072-0.471-0.163-0.65-0.224c-0.181-0.061-0.315-0.131-0.41-0.168c-0.092-0.044-0.141-0.066-0.141-0.066  s0.203,0.079,0.566,0.186c0.184,0.048,0.401,0.124,0.661,0.178c0.259,0.056,0.546,0.136,0.866,0.195  c0.318,0.061,0.661,0.137,1.029,0.198c0.368,0.057,0.756,0.111,1.157,0.179c0.401,0.059,0.818,0.103,1.242,0.157  c0.211,0.025,0.426,0.05,0.639,0.076c0.216,0.017,0.432,0.035,0.647,0.052c0.433,0.034,0.863,0.08,1.288,0.119  c0.419,0.022,0.848,0.055,1.245,0.043c0.201,0.002,0.398-0.003,0.593-0.02c0.192-0.01,0.383-0.017,0.565-0.043  c0.183-0.021,0.361-0.038,0.531-0.077c0.17-0.031,0.335-0.063,0.488-0.111c0.156-0.038,0.302-0.088,0.438-0.142  c0.141-0.044,0.262-0.11,0.382-0.162c0.095-0.05,0.183-0.101,0.264-0.151c0.146-0.729,0.278-1.456,0.4-2.174  c-0.021,0.023-0.04,0.046-0.063,0.069c-0.133,0.142-0.319,0.285-0.549,0.425c-0.233,0.134-0.509,0.27-0.826,0.363  c-0.155,0.056-0.322,0.097-0.496,0.137c-0.172,0.047-0.354,0.073-0.541,0.103c-0.188,0.036-0.38,0.053-0.577,0.07  c-0.197,0.02-0.399,0.028-0.607,0.029c-0.418,0.017-0.829-0.009-1.265-0.025c-0.427-0.036-0.861-0.066-1.296-0.109  c-0.216-0.02-0.433-0.041-0.648-0.061c-0.216-0.029-0.43-0.058-0.643-0.085c-0.425-0.06-0.845-0.11-1.246-0.175  c-0.405-0.071-0.791-0.151-1.159-0.221c-0.366-0.077-0.709-0.168-1.028-0.242c-0.318-0.07-0.602-0.174-0.856-0.248  c-0.256-0.072-0.471-0.163-0.65-0.224c-0.181-0.061-0.315-0.13-0.41-0.168c-0.092-0.044-0.141-0.066-0.141-0.066  s0.203,0.079,0.566,0.185c0.184,0.049,0.401,0.124,0.661,0.178c0.259,0.056,0.546,0.136,0.866,0.195  c0.318,0.061,0.661,0.137,1.029,0.198c0.368,0.057,0.756,0.11,1.157,0.179c0.401,0.059,0.818,0.103,1.242,0.157  c0.211,0.025,0.426,0.05,0.639,0.076c0.216,0.017,0.432,0.035,0.647,0.052c0.433,0.034,0.863,0.08,1.288,0.118  c0.419,0.023,0.848,0.056,1.245,0.044c0.201,0.002,0.398-0.003,0.593-0.02c0.192-0.01,0.383-0.017,0.565-0.043  c0.183-0.021,0.361-0.038,0.531-0.077c0.17-0.031,0.335-0.063,0.488-0.111c0.156-0.038,0.302-0.088,0.438-0.142  c0.141-0.044,0.262-0.11,0.382-0.163c0.231-0.119,0.424-0.245,0.562-0.372c0.045-0.038,0.082-0.074,0.117-0.11  c0.033-0.195,0.065-0.389,0.098-0.583c0.159-0.97,0.303-2.064,0.43-3.207c-0.011,0.005-0.018,0.009-0.03,0.014  c-0.094,0.039-0.238,0.079-0.423,0.109c-0.186,0.034-0.411,0.061-0.674,0.084c-0.26,0.025-0.555,0.043-0.877,0.051  c-0.32,0.011-0.67,0.015-1.038,0.017c-0.369,0.003-0.757-0.002-1.16-0.018c-0.399-0.016-0.813-0.031-1.235-0.047  c-0.42-0.018-0.847-0.035-1.275-0.053c-0.853-0.051-1.706-0.07-2.507-0.1c-0.4-0.005-0.786-0.022-1.153-0.032  c-0.367-0.012-0.714-0.011-1.035-0.017c-0.641-0.004-1.174-0.009-1.549,0c-0.374,0.006-0.588,0.018-0.588,0.018  s0.053-0.007,0.152-0.021c0.099-0.011,0.245-0.035,0.433-0.048c0.187-0.016,0.414-0.039,0.673-0.053  c0.262-0.015,0.556-0.042,0.877-0.047c0.642-0.022,1.392-0.038,2.195-0.037c0.802,0.018,1.659,0.026,2.515,0.066  c0.855,0.036,1.71,0.091,2.51,0.129c0.8,0.034,1.547,0.075,2.186,0.083c0.64,0.006,1.173,0.008,1.544-0.031  c0.186-0.018,0.33-0.04,0.425-0.07c0.016-0.004,0.025-0.008,0.037-0.013c0.463-4.149,0.72-8.934,0.807-10.763  c-0.029-0.271-0.038-0.531,0.034-0.729c0-0.022,0.001-0.036,0.001-0.04c0.005-0.122,0.09-0.226,0.208-0.256l0.301-0.075  c0.019-0.005,0.06-0.014,0.114-0.026c1.114,2.126,3.33,6.524,4.112,9.279c0.782,2.761,1.349,9.941,1.354,10.013l0.028,0.371  l0.346-0.137c0.092-0.036,2.242-0.902,2.817-2.528c0.573-1.613,0.759-4.741,0.008-7.598c-0.673-2.553-2.484-6.916-3.234-8.673  c-0.25-0.592-0.418-1.236-0.527-1.822c0.192-0.05,0.358-0.096,0.487-0.135c0.01-0.017,0.018-0.034,0.027-0.05  c0.195-0.079,0.395-0.146,0.593-0.211c0.708-0.335,1.849-0.901,2.238-1.096l0.291-2.963c-0.001-0.024-0.004-0.047-0.006-0.074  c-0.022-0.199-0.063-0.488-0.132-0.834c-0.04-0.172-0.073-0.35-0.129-0.554c-0.055-0.203-0.109-0.407-0.164-0.65  c-0.047-0.236-0.087-0.478-0.109-0.722c-0.029-0.245-0.038-0.491-0.052-0.738c-0.034-0.986,0.028-1.959,0.091-2.687  c0.064-0.728,0.132-1.209,0.132-1.209s-0.016,0.486,0,1.213c0.017,0.726,0.062,1.696,0.2,2.644c0.037,0.236,0.073,0.472,0.125,0.698  c0.047,0.229,0.108,0.446,0.173,0.651c0.068,0.195,0.147,0.41,0.221,0.603c0.074,0.193,0.138,0.398,0.194,0.576  c0.11,0.359,0.186,0.667,0.232,0.886c0.021,0.112,0.037,0.197,0.046,0.261c0.005,0.037,0.009,0.062,0.012,0.079l0.84,2.001  c0.339-0.201,0.931-0.557,1.434-0.869c0.238-0.16,0.482-0.31,0.725-0.465l0.092-0.06c0.052-0.035,0.109-0.073,0.171-0.113  c0.143-0.098,0.285-0.198,0.421-0.308c0.017,0,0.031-0.004,0.048-0.005c0.171-0.115,0.355-0.24,0.548-0.374  c0.079-0.11,0.157-0.223,0.261-0.305c0.145-0.037,0.277-0.095,0.401-0.162c0.195-0.141,0.392-0.285,0.587-0.432  c0.304-0.285,0.575-0.611,0.902-0.864c0.257-0.105,0.463-0.268,0.649-0.453c0.007-0.006,0.014-0.013,0.02-0.021  c0.181-0.182,0.345-0.382,0.52-0.572c0.846-1.001,1.4-2.001,1.407-2.014c0.015-0.026,0.033-0.049,0.056-0.07  c0.008-0.007,0.298-0.273,0.704-0.692c-0.023-0.036-0.058-0.09-0.104-0.161c-0.092-0.135-0.227-0.328-0.397-0.552  c-0.17-0.223-0.377-0.479-0.615-0.734c-0.118-0.128-0.244-0.256-0.378-0.376c-0.134-0.126-0.256-0.228-0.421-0.348  c-0.017-0.013-0.046-0.033-0.051-0.041l-0.065-0.056c-0.042-0.038-0.088-0.074-0.123-0.113c-0.075-0.078-0.147-0.154-0.209-0.233  c-0.131-0.157-0.241-0.317-0.347-0.471c-0.209-0.311-0.38-0.609-0.521-0.867c-0.28-0.517-0.442-0.87-0.442-0.87  s0.229,0.315,0.604,0.76c0.188,0.222,0.41,0.475,0.664,0.727c0.128,0.124,0.26,0.251,0.401,0.362  c0.067,0.06,0.141,0.109,0.212,0.158c0.036,0.028,0.071,0.042,0.107,0.064l0.053,0.03l0.067,0.042  c0.155,0.097,0.343,0.231,0.496,0.356c0.157,0.125,0.306,0.255,0.442,0.385c0.275,0.26,0.516,0.517,0.713,0.742  s0.354,0.42,0.462,0.56c0.008,0.01,0.013,0.017,0.02,0.026c0.49-0.544,1.034-1.204,1.459-1.872c0.597-0.938,1.066-1.464,1.481-1.929  c0.317-0.354,0.589-0.658,0.844-1.07c0.326-0.532,0.412-0.933,0.52-1.44c0.076-0.363,0.164-0.774,0.357-1.29  c0.203-0.545,0.396-0.827,0.562-1.076c0.207-0.308,0.357-0.53,0.477-1.202c0.066-0.378,0.114-0.731,0.155-1.042  c0.104-0.77,0.188-1.378,0.476-1.896c0.338-0.61,0.714-2.246,0.79-4.529C89.291,17.29,88.396,16.606,87.265,15.742z M59.913,15.129  c0.005-0.144,0.018-0.271,0.043-0.38c0.022-0.11,0.035-0.203,0.059-0.276c0.04-0.147,0.071-0.222,0.071-0.222  s-0.017,0.08-0.026,0.23c-0.012,0.073-0.006,0.167-0.006,0.275c-0.003,0.108,0.007,0.232,0.022,0.371  c0.011,0.138,0.024,0.29,0.068,0.452c0.044,0.161,0.053,0.341,0.126,0.521c0.063,0.181,0.119,0.376,0.198,0.574  c0.09,0.193,0.184,0.397,0.283,0.61c0.099,0.211,0.248,0.41,0.374,0.627c0.066,0.109,0.135,0.221,0.204,0.334  c0.072,0.113,0.146,0.229,0.222,0.344c0.301,0.454,0.614,0.985,0.882,1.538c0.279,0.551,0.522,1.137,0.772,1.706  c0.121,0.286,0.261,0.554,0.402,0.823c0.168,0.266,0.336,0.534,0.506,0.801c0.179,0.338,0.308,0.656,0.403,0.987  c0.099,0.33,0.169,0.661,0.216,0.992c0.099,0.661,0.09,1.317,0.032,1.944c-0.061,0.627-0.204,1.227-0.412,1.773  c-0.027,0.067-0.055,0.135-0.079,0.202l-0.011,0.024l-0.003,0.006l-0.006,0.011l-0.012,0.023l-0.023,0.045l-0.046,0.09  c-0.05,0.114-0.143,0.252-0.23,0.375c-0.181,0.236-0.379,0.425-0.584,0.579c-0.409,0.312-0.793,0.503-1.017,0.771  c-0.218,0.267-0.267,0.6-0.259,0.871c0.016,0.272,0.043,0.493,0.078,0.64c0.031,0.148,0.047,0.228,0.047,0.228  s-0.031-0.075-0.088-0.215c-0.062-0.139-0.143-0.349-0.2-0.635c-0.053-0.278-0.074-0.683,0.164-1.07  c0.24-0.376,0.639-0.64,0.968-0.949c0.343-0.313,0.57-0.69,0.719-1.196c0.047-0.16,0.086-0.327,0.121-0.498  c-0.166,0.086-0.309-0.145-0.309-0.145l-0.772-0.171c0,0,0.241-0.618,0.446-1.27c0.118-0.374,0.461-0.735,0.732-0.977  c-0.014-0.113-0.026-0.226-0.044-0.338c-0.045-0.296-0.113-0.59-0.202-0.874c-0.086-0.285-0.212-0.561-0.331-0.792  c-0.171-0.281-0.341-0.561-0.511-0.84c-0.154-0.3-0.305-0.601-0.426-0.9c-0.258-0.595-0.451-1.179-0.697-1.715  c-0.113-0.276-0.248-0.528-0.365-0.784c-0.114-0.255-0.261-0.505-0.391-0.748c-0.135-0.247-0.257-0.472-0.376-0.72  c-0.112-0.245-0.242-0.469-0.325-0.706c-0.08-0.235-0.157-0.462-0.229-0.677c-0.056-0.22-0.089-0.435-0.13-0.632  c-0.021-0.098-0.034-0.195-0.037-0.29c-0.006-0.094-0.012-0.184-0.018-0.271C59.892,15.434,59.903,15.273,59.913,15.129z   M44.357,37.223c0.061-0.126,0.157-0.31,0.31-0.525c0.147-0.219,0.352-0.464,0.604-0.732c0.263-0.256,0.572-0.538,0.947-0.79  c0.19-0.125,0.384-0.262,0.601-0.373c0.106-0.06,0.217-0.12,0.326-0.181c0.113-0.058,0.23-0.106,0.348-0.162  c0.119-0.053,0.239-0.107,0.36-0.162c0.127-0.045,0.253-0.091,0.382-0.138c0.128-0.045,0.258-0.091,0.39-0.137  c0.134-0.039,0.271-0.072,0.407-0.108c0.273-0.072,0.551-0.149,0.839-0.192c0.288-0.045,0.575-0.12,0.872-0.14  c0.295-0.032,0.594-0.063,0.893-0.094c0.297-0.018,0.596-0.035,0.895-0.052c0.596-0.037,1.197-0.037,1.79-0.045  c0.295-0.009,0.588,0.006,0.878,0.011c0.289,0.011,0.575,0.006,0.856,0.029c0.28,0.02,0.557,0.039,0.828,0.058  c0.268,0.026,0.532,0.063,0.789,0.094c0.256,0.025,0.503,0.078,0.743,0.118c0.24,0.037,0.47,0.087,0.689,0.141  c0.22,0.048,0.43,0.101,0.625,0.166c0.099,0.031,0.195,0.06,0.287,0.089c0.092,0.035,0.181,0.068,0.267,0.102  c0.173,0.062,0.329,0.131,0.471,0.203c0.146,0.063,0.271,0.141,0.386,0.206c0.226,0.136,0.385,0.27,0.485,0.37  c0.1,0.099,0.138,0.165,0.138,0.165s-0.043-0.063-0.149-0.153c-0.05-0.049-0.123-0.096-0.203-0.157  c-0.088-0.05-0.182-0.12-0.298-0.177c-0.116-0.059-0.242-0.128-0.39-0.184c-0.144-0.062-0.3-0.123-0.475-0.176  c-0.086-0.027-0.175-0.057-0.267-0.086c-0.093-0.024-0.189-0.048-0.287-0.074c-0.099-0.025-0.198-0.051-0.302-0.078  c-0.104-0.021-0.212-0.042-0.322-0.064c-0.216-0.046-0.445-0.089-0.685-0.118c-0.239-0.032-0.482-0.075-0.738-0.093  c-0.256-0.021-0.516-0.05-0.783-0.068c-0.269-0.014-0.543-0.028-0.821-0.043c-0.278-0.021-0.563-0.012-0.851-0.021  c-0.286-0.003-0.577-0.014-0.87-0.002c-0.586,0.014-1.181,0.021-1.778,0.063c-0.298,0.014-0.598,0.028-0.895,0.042  c-0.294,0.028-0.586,0.056-0.875,0.084c-0.293,0.018-0.574,0.087-0.857,0.129c-0.283,0.039-0.557,0.111-0.826,0.178  c-0.133,0.036-0.268,0.065-0.398,0.102c-0.131,0.042-0.258,0.084-0.385,0.126c-0.127,0.042-0.252,0.083-0.377,0.122  c-0.12,0.05-0.239,0.1-0.356,0.148c-0.117,0.051-0.235,0.094-0.346,0.147c-0.11,0.057-0.219,0.112-0.324,0.167  c-0.218,0.103-0.41,0.23-0.599,0.347c-0.376,0.238-0.691,0.496-0.963,0.735c-0.261,0.25-0.477,0.482-0.633,0.69  c-0.158,0.206-0.27,0.379-0.338,0.501c-0.069,0.122-0.101,0.19-0.101,0.19S44.295,37.35,44.357,37.223z M37.136,33.626  c-0.182-0.818-0.332-1.782-0.45-2.814c-0.055-0.516-0.122-1.048-0.164-1.589c-0.043-0.547-0.104-1.074-0.138-1.653  c-0.024-0.575,0-1.162,0.114-1.735c0.111-0.574,0.341-1.113,0.602-1.587c0.26-0.478,0.559-0.886,0.814-1.276  c0.129-0.195,0.246-0.386,0.356-0.567c0.058-0.088,0.109-0.19,0.162-0.283c0.027-0.044,0.053-0.098,0.078-0.135  c0.028-0.046,0.057-0.094,0.086-0.14c0.116-0.183,0.211-0.367,0.335-0.521c0.131-0.151,0.251-0.294,0.369-0.423  c0.137-0.115,0.262-0.222,0.38-0.316c0.131-0.075,0.252-0.145,0.362-0.208c0.118-0.045,0.222-0.084,0.313-0.114  c0.096-0.018,0.176-0.033,0.241-0.045c0.134-0.012,0.2-0.007,0.2-0.007c0,0-0.017,0.003-0.05,0.009  c-0.032,0.009-0.079,0.023-0.141,0.041c-0.059,0.026-0.131,0.057-0.215,0.094c-0.077,0.047-0.168,0.103-0.269,0.164  c-0.088,0.075-0.186,0.159-0.291,0.25c-0.093,0.105-0.192,0.219-0.297,0.341c-0.086,0.136-0.178,0.28-0.273,0.433  c-0.089,0.155-0.159,0.336-0.244,0.513c-0.021,0.045-0.041,0.09-0.063,0.135c-0.026,0.056-0.043,0.101-0.063,0.151  c-0.044,0.101-0.079,0.2-0.131,0.307c-0.096,0.215-0.208,0.424-0.321,0.636c-0.229,0.424-0.48,0.853-0.697,1.293  c-0.218,0.442-0.371,0.911-0.463,1.406c-0.092,0.496-0.105,1.018-0.074,1.544c0.023,0.523,0.075,1.093,0.109,1.63  c0.043,0.541,0.062,1.074,0.094,1.589c0.031,0.513,0.063,1.01,0.092,1.481c0.033,0.47,0.066,0.913,0.104,1.322  c0.039,0.408,0.085,0.78,0.129,1.111c0.028,0.164,0.053,0.317,0.078,0.459c0.027,0.141,0.055,0.271,0.08,0.388  c0.063,0.229,0.104,0.416,0.154,0.535c0.043,0.123,0.068,0.187,0.068,0.187s-0.039-0.058-0.109-0.167  c-0.074-0.109-0.163-0.279-0.27-0.501c-0.046-0.114-0.098-0.24-0.154-0.376c-0.051-0.138-0.1-0.291-0.154-0.453  C37.327,34.407,37.223,34.036,37.136,33.626z M40.408,27.69c-0.649,0.433-1.947,0-1.947,0l-0.793-0.866c0,0,0.648-1.083,1.587-0.938  c0.937,0.145,1.442,0.938,1.442,0.938S41.058,27.257,40.408,27.69z M37.462,43.731l-0.043-0.444L37.4,43.064l-0.004-0.056  c-0.003-0.043-0.001-0.047-0.002-0.073l0.002-0.121c-0.003-0.326,0.052-0.637,0.113-0.942c0.139-0.605,0.341-1.179,0.563-1.737  c0.222-0.559,0.457-1.107,0.682-1.657c0.226-0.549,0.452-1.099,0.648-1.652c0.102-0.275,0.191-0.565,0.295-0.841l0.308-0.845  c0.103-0.281,0.201-0.563,0.313-0.841l0.361-0.822c0.119-0.274,0.237-0.549,0.376-0.814c0.136-0.267,0.27-0.533,0.421-0.791  c-0.124,0.272-0.225,0.553-0.334,0.83c-0.116,0.273-0.212,0.555-0.308,0.837l-0.291,0.842l-0.253,0.855l-0.253,0.852  c-0.09,0.288-0.163,0.572-0.256,0.861c-0.18,0.577-0.379,1.141-0.592,1.701c-0.212,0.559-0.431,1.113-0.636,1.668  c-0.101,0.277-0.2,0.554-0.29,0.832c-0.091,0.278-0.166,0.557-0.228,0.835c-0.055,0.279-0.101,0.559-0.097,0.831v0.102  c0,0.012,0.002,0.046-0.001,0.039l0.007,0.055l0.021,0.223l0.038,0.445c0.017,0.146,0.021,0.302,0.045,0.441l0.075,0.42  c0.019,0.109,0.04,0.218,0.067,0.324c-0.254,0.228-0.368,0.459-0.378,0.478l-0.022,0.073c-0.034-0.109-0.065-0.215-0.096-0.32  c-0.045-0.15-0.074-0.303-0.102-0.457l-0.084-0.46C37.481,44.025,37.479,43.881,37.462,43.731z M39.645,44.423  c-0.392-0.035-0.713,0.026-0.969,0.135c0.02-0.011,0.039-0.023,0.061-0.032c0.123-0.061,0.26-0.102,0.399-0.126  c0.07-0.012,0.144-0.011,0.216-0.016c0.071,0.003,0.143,0.012,0.214,0.019L39.645,44.423z M40.839,56.693  c0.146,2.927,1.623,10.216,1.872,11.438c-0.021,0-0.045-0.002-0.073-0.006c-0.547-0.247-3.952-3.683-4.872-7.491  c-1.027-4.262,0.442-14.305,0.56-15.083c0.081-0.137,0.467-0.678,1.323-0.578c0.838,0.098,2.266,1.116,2.899,1.619  C42.25,47.719,40.695,53.777,40.839,56.693z M43.445,45.148c-0.01,0.095-0.014,0.189-0.041,0.29  c-0.009,0.049-0.027,0.101-0.054,0.151c-0.016,0.048-0.059,0.105-0.109,0.158l-0.037,0.037l-0.027,0.018l-0.056,0.037l-0.071,0.037  c-0.015,0.009-0.033,0.016-0.045,0.026c-0.057,0.037-0.087,0.082-0.1,0.126c-0.012,0.043-0.008,0.097,0.011,0.156  c-0.074-0.059-0.183-0.143-0.312-0.241c0.001-0.005,0.001-0.009,0.003-0.015c0.044-0.125,0.141-0.225,0.237-0.278  c0.024-0.018,0.05-0.026,0.073-0.038l0.037-0.017l0.016-0.006l0.057-0.032l0.029-0.017c0.004-0.005,0.004-0.01,0.008-0.014  c0.009-0.016,0.027-0.025,0.043-0.063c0.017-0.028,0.033-0.061,0.043-0.1c0.027-0.07,0.039-0.155,0.054-0.238  c0.022-0.169,0.027-0.348,0.033-0.525c0.006-0.357,0.001-0.718,0.017-1.079c0.011-0.361,0.054-0.722,0.125-1.075  c-0.016,0.18-0.025,0.359-0.025,0.538c0,0.18,0.003,0.358,0.01,0.537c0.016,0.358,0.048,0.713,0.071,1.075  C43.445,44.778,43.454,44.959,43.445,45.148z M44.836,41.887c-0.386,0.376-0.565,0.629-0.565,0.629s0.16-0.266,0.526-0.667  c0.367-0.396,0.937-0.932,1.723-1.433c0.782-0.502,1.769-0.985,2.888-1.319c0.557-0.17,1.145-0.307,1.747-0.405  c0.604-0.099,1.221-0.173,1.842-0.203c0.62-0.032,1.241-0.026,1.85,0.003c0.605,0.023,1.209,0.074,1.784,0.136  c1.153,0.127,2.222,0.367,3.095,0.694c0.438,0.164,0.823,0.359,1.139,0.571c0.314,0.214,0.561,0.443,0.724,0.663  c0.165,0.217,0.244,0.422,0.279,0.562c0.035,0.142,0.029,0.22,0.029,0.22s0.001-0.079-0.043-0.216  c-0.043-0.136-0.137-0.329-0.309-0.532c-0.169-0.206-0.42-0.417-0.736-0.61c-0.317-0.189-0.703-0.361-1.135-0.512  c-0.865-0.3-1.928-0.483-3.068-0.602c-0.574-0.056-1.162-0.099-1.769-0.118c-0.603-0.022-1.215-0.02-1.827,0.014  c-0.609,0.023-1.22,0.091-1.813,0.182c-0.596,0.091-1.174,0.22-1.723,0.38c-1.1,0.317-2.089,0.746-2.874,1.223  C45.813,41.02,45.216,41.509,44.836,41.887z M47.943,61.484c0.184,0.047,0.401,0.123,0.661,0.177  c0.259,0.056,0.546,0.136,0.866,0.195c0.318,0.061,0.661,0.137,1.029,0.198c0.368,0.058,0.756,0.11,1.157,0.179  c0.401,0.06,0.818,0.103,1.242,0.156c0.211,0.026,0.426,0.051,0.639,0.076c0.216,0.018,0.432,0.035,0.647,0.053  c0.433,0.034,0.863,0.08,1.288,0.118c0.419,0.023,0.848,0.055,1.245,0.043c0.201,0.002,0.398-0.002,0.593-0.019  c0.192-0.011,0.383-0.017,0.565-0.043c0.183-0.022,0.361-0.039,0.531-0.077c0.17-0.031,0.335-0.062,0.488-0.11  c0.156-0.039,0.302-0.087,0.438-0.143c0.141-0.043,0.262-0.109,0.382-0.161c0.231-0.12,0.424-0.245,0.562-0.373  c0.287-0.246,0.371-0.456,0.371-0.456s-0.013,0.052-0.064,0.143c-0.05,0.088-0.13,0.219-0.268,0.354  c-0.133,0.141-0.319,0.284-0.549,0.425c-0.233,0.134-0.509,0.271-0.826,0.364c-0.155,0.056-0.322,0.096-0.496,0.136  c-0.172,0.047-0.354,0.073-0.541,0.104c-0.188,0.036-0.38,0.052-0.577,0.069c-0.197,0.021-0.399,0.028-0.607,0.029  c-0.418,0.018-0.829-0.007-1.265-0.024c-0.427-0.037-0.861-0.066-1.296-0.108c-0.216-0.021-0.433-0.042-0.648-0.062  c-0.216-0.028-0.43-0.057-0.643-0.085c-0.425-0.061-0.845-0.11-1.246-0.176c-0.405-0.07-0.791-0.151-1.159-0.221  c-0.366-0.077-0.709-0.168-1.028-0.242c-0.318-0.069-0.602-0.174-0.856-0.247c-0.256-0.072-0.471-0.162-0.65-0.224  c-0.181-0.062-0.315-0.131-0.41-0.168c-0.092-0.043-0.141-0.066-0.141-0.066S47.58,61.377,47.943,61.484z M60.416,55.667  c-0.381-0.008-0.925-0.008-1.577-0.032c-0.652-0.022-1.416-0.036-2.229-0.078c-0.817-0.039-1.685-0.077-2.551-0.092  c-0.434-0.013-0.867-0.011-1.294-0.004c-0.427,0.008-0.846,0.022-1.252,0.049c-0.404,0.024-0.796,0.051-1.168,0.086  c-0.368,0.04-0.72,0.081-1.04,0.132c-0.643,0.098-1.176,0.208-1.541,0.31c-0.366,0.098-0.569,0.179-0.569,0.179  s0.193-0.102,0.554-0.228c0.362-0.124,0.887-0.282,1.529-0.408c0.322-0.065,0.673-0.121,1.045-0.176  c0.373-0.048,0.767-0.102,1.174-0.13c0.409-0.032,0.833-0.053,1.263-0.067c0.43-0.012,0.867-0.02,1.304-0.013  c0.437-0.006,0.873,0.029,1.303,0.045c0.427,0.025,0.849,0.05,1.257,0.075c0.813,0.044,1.573,0.112,2.226,0.16  c0.65,0.046,1.192,0.104,1.572,0.136c0.379,0.039,0.595,0.06,0.595,0.06S60.798,55.67,60.416,55.667z M61.271,51.707  c-0.084-0.074-0.221-0.163-0.408-0.25c-0.185-0.092-0.424-0.172-0.699-0.255c-0.278-0.073-0.596-0.148-0.944-0.215  c-0.349-0.065-0.73-0.119-1.135-0.171c-0.405-0.04-0.833-0.089-1.275-0.123c-0.44-0.042-0.906-0.06-1.37-0.086  c-0.466-0.008-0.94-0.032-1.413-0.02c-0.474-0.004-0.946,0.025-1.411,0.052c-0.465,0.042-0.921,0.082-1.359,0.154  c-0.438,0.062-0.861,0.139-1.26,0.223c-0.397,0.085-0.77,0.185-1.111,0.283c-0.17,0.053-0.331,0.105-0.486,0.154  c-0.153,0.054-0.298,0.104-0.434,0.153c-0.271,0.103-0.504,0.2-0.693,0.287c-0.188,0.089-0.334,0.161-0.433,0.214  c-0.097,0.053-0.147,0.084-0.147,0.084s0.19-0.144,0.558-0.345c0.184-0.099,0.412-0.211,0.678-0.332  c0.134-0.056,0.277-0.117,0.429-0.181c0.152-0.057,0.315-0.116,0.484-0.178c0.341-0.112,0.713-0.227,1.111-0.328  c0.198-0.058,0.406-0.095,0.617-0.144c0.211-0.051,0.428-0.089,0.65-0.123c0.443-0.079,0.906-0.124,1.375-0.173  c0.472-0.034,0.949-0.068,1.429-0.071c0.479-0.022,0.959,0.018,1.431,0.029c0.471,0.033,0.928,0.058,1.377,0.106  c0.448,0.038,0.878,0.097,1.283,0.159c0.406,0.068,0.789,0.139,1.14,0.22c0.175,0.039,0.341,0.087,0.5,0.126  c0.158,0.046,0.305,0.099,0.444,0.143c0.274,0.104,0.51,0.201,0.691,0.308c0.186,0.1,0.316,0.207,0.395,0.288s0.099,0.14,0.099,0.14  S61.355,51.779,61.271,51.707z M61.766,46.561l-0.126,0.144l0.091,0.169c0.003,0.005,0.03,0.054,0.072,0.134  c-0.003,0-0.004,0-0.006,0c-0.07-0.003-0.168-0.047-0.192-0.07c-0.036-0.027-0.071-0.061-0.099-0.097  c-0.022-0.035-0.047-0.082-0.055-0.107l-0.021-0.067l-0.008-0.047c-0.02-0.117-0.018-0.192-0.02-0.276  c0-0.073,0.005-0.141,0.007-0.212c-0.137-0.138-0.306-0.276-0.509-0.405c-0.292-0.188-0.648-0.356-1.049-0.507  c-0.402-0.149-0.851-0.275-1.333-0.377c-0.48-0.104-0.995-0.179-1.527-0.247c-0.534-0.064-1.09-0.111-1.652-0.142  c-0.568-0.025-1.139-0.053-1.71-0.027c-0.572,0.022-1.144,0.062-1.701,0.14c-0.559,0.075-1.104,0.183-1.623,0.315  c-1.038,0.267-1.988,0.605-2.767,0.971c-0.779,0.365-1.408,0.721-1.828,0.999c-0.422,0.274-0.647,0.456-0.647,0.456  s0.208-0.201,0.617-0.501c0.408-0.296,1.01-0.707,1.788-1.095c0.777-0.389,1.72-0.789,2.776-1.063  c0.527-0.141,1.079-0.257,1.646-0.34c0.567-0.082,1.148-0.14,1.73-0.153c0.582-0.019,1.165,0.015,1.73,0.046  c0.571,0.037,1.13,0.091,1.67,0.161c1.077,0.151,2.074,0.387,2.886,0.717c0.404,0.164,0.759,0.36,1.049,0.566  c0.181,0.127,0.332,0.262,0.459,0.396c0.009-0.204,0.021-0.4,0.04-0.599l0.098-0.871l0.107-0.861l0.105-0.864  c0.032-0.287,0.077-0.577,0.102-0.863l0.073-0.857l0.038-0.431l0.009-0.431c0.003-0.288,0.03-0.579,0.013-0.865l-0.056-0.867  l0.191,0.854c0.056,0.288,0.066,0.579,0.101,0.871l0.042,0.438l0.009,0.439l0.014,0.88c-0.001,0.293-0.02,0.581-0.028,0.872  l-0.038,0.87l-0.055,0.871l-0.042,0.862c-0.002,0.073-0.005,0.146-0.008,0.219c0.16-0.135,0.324-0.251,0.491-0.361  c0.259-0.167,0.524-0.31,0.793-0.445c0.27-0.135,0.541-0.259,0.817-0.373c0.135-0.058,0.285-0.114,0.42-0.165l0.211-0.076  l0.241-0.065l0.242-0.063c0.081-0.02,0.173-0.018,0.261-0.026c0.089-0.004,0.176-0.012,0.265-0.01l0.277,0.042  c0.084,0.008,0.169,0.042,0.253,0.076l-0.025-0.483c0.002-0.098-0.028-0.214-0.042-0.322l-0.05-0.328l-0.052-0.329l-0.007-0.041  l-0.003-0.016v-0.002l-0.021-0.078l-0.043-0.158l-0.338-1.264l-0.082-0.318c-0.024-0.106-0.063-0.208-0.094-0.313l-0.197-0.626  L65.463,40c-0.205-0.455-0.412-0.909-0.608-1.367l-0.598-1.372c-0.394-0.915-0.752-1.842-1.101-2.776  c0.247,0.433,0.492,0.866,0.73,1.303c0.239,0.437,0.472,0.876,0.717,1.308l0.712,1.306c0.237,0.435,0.468,0.874,0.696,1.311  l0.009,0.015l0.007,0.02l0.241,0.629c0.038,0.105,0.085,0.208,0.117,0.316l0.103,0.321l0.396,1.291l0.051,0.162l0.023,0.081  l0.003,0.01l0.008,0.033l0.003,0.02l0.009,0.041l0.063,0.326l0.063,0.327c0.019,0.111,0.048,0.21,0.051,0.336l0.049,0.72  l-0.01,0.355c-0.001,0.115-0.011,0.241-0.026,0.372l-0.095,0.016c-0.001-0.023-0.002-0.039-0.002-0.041l-0.002-0.191l-0.182-0.063  c-0.039-0.015-0.997-0.35-1.892-0.35c-0.281,0-0.532,0.034-0.744,0.101C63.257,44.874,61.827,46.492,61.766,46.561z M67.314,49.049  c0.744,1.747,2.545,6.079,3.208,8.598c0.715,2.72,0.538,5.778,0.006,7.275c-0.366,1.035-1.563,1.744-2.159,2.042  c-0.13-1.562-0.643-7.259-1.343-9.728c-0.989-3.49-4.124-9.356-4.72-10.456c0.469-0.508,1.472-1.496,2.111-1.698  c0.158-0.049,0.354-0.075,0.58-0.075c0.587,0,1.23,0.171,1.531,0.262C66.558,45.849,66.686,47.572,67.314,49.049z"/><text x="0" y="115" fill="#000000" font-size="5px" font-weight="bold" font-family="'Helvetica Neue', Helvetica, Arial-Unicode, Arial, Sans-serif">Created by NOPIXEL</text><text x="0" y="120" fill="#000000" font-size="5px" font-weight="bold" font-family="'Helvetica Neue', Helvetica, Arial-Unicode, Arial, Sans-serif">from the Noun Project</text></svg>